<svg xmlns="http://www.w3.org/2000/svg" viewBox="0 0 40 60"><title>people</title><polygon points="25 7 25 6 24 6 24 5 18 5 18 6 17 6 17 7 16 7 16 8 18 8 18 7 24 7 24 9 25 9 25 12 26 12 26 7 25 7" style="fill:#f7e289"/><polygon points="25 12 25 8 24 8 24 7 17 7 17 8 16 8 16 16 17 16 17 17 19 17 19 19 17 19 17 20 19 20 19 21 19 22 20 22 20 21 21 21 21 20 24 20 24 19 22 19 22 17 24 17 24 16 25 16 25 15 26 15 26 12 25 12" style="fill:#e8c5ac"/><polygon points="17 20 17 19 16 19 16 20 14 20 14 21 12 21 12 23 15 23 15 28 16 28 16 36 15 36 15 38 15 46 16 46 16 48 25 48 25 38 24 38 24 28 25 28 25 22 27 22 27 20 17 20" style="fill:#53aaaa"/><polygon points="29 56 28 56 23 56 23 54 13 54 13 55 5 55 5 57 11 57 11 58 28 58 28 57 29 57 29 56" style="fill:#f2f2f2"/><rect x="16" y="48" width="3" height="1" style="fill:#e8c5ac"/><rect x="17" y="49" width="2" height="8" style="fill:#e8c5ac"/><rect x="22" y="48" width="3" height="1" style="fill:#e8c5ac"/><rect x="23" y="49" width="2" height="8" style="fill:#e8c5ac"/><polygon points="18 48 16 48 16 49 18 49 18 57 19 57 19 49 19 48 18 48" style="fill:#d8b39a"/><polygon points="24 48 22 48 22 49 24 49 24 57 25 57 25 49 25 48 24 48" style="fill:#d8b39a"/><rect x="25" y="21" width="3" height="2" style="fill:#53aaaa"/><rect x="24" y="34" width="1" height="4" style="fill:#53aaaa"/><polygon points="14 29 14 23 13 23 12 23 12 36 12 38 14 38 14 36 13 36 13 29 14 29" style="fill:#e8c5ac"/><polygon points="27 23 26 23 26 29 27 29 27 36 26 36 26 38 28 38 28 36 28 23 27 23" style="fill:#e8c5ac"/><rect x="21" y="10" width="1" height="1" style="fill:#6181db"/><rect x="17" y="10" width="1" height="1" style="fill:#6181db"/><rect x="18" y="14" width="3" height="1" style="fill:#c1272d"/><rect x="23" y="19" width="1.91627" height="2" style="fill:#53aaaa"/><rect x="24" y="16" width="1" height="3" style="fill:#f7e289"/><rect x="22" y="17" width="2" height="2" style="fill:#f2d661"/><rect x="18" y="17" width="1" height="2" style="fill:#f7e289"/><rect x="23" y="7" width="1" height="1" style="fill:#f2d661"/><rect x="25" y="14" width="1" height="1" style="fill:#eaeef4"/><rect x="27" y="23" width="1" height="14" style="fill:#d8b39a"/><rect x="13" y="23" width="1" height="6" style="fill:#d8b39a"/><rect x="13" y="36" width="1" height="1" style="fill:#d8b39a"/><polygon points="24 10 24 9 23 9 23 11 24 11 24 15 23 15 23 16 22 16 22 17 23 17 24 17 24 16 25 16 25 10 24 10" style="fill:#d8b39a"/><polygon points="22 19 22 17 21 17 21 19 21 20 23 20 23 19 22 19" style="fill:#d8b39a"/><rect x="19" y="11" width="1" height="2" style="fill:#d8b39a"/><rect x="23" y="55" width="2" height="2" style="fill:#458593"/><rect x="17" y="55" width="2" height="2" style="fill:#458593"/><rect x="22" y="17" width="1" height="2" style="fill:#e5cc61"/><rect x="23" y="17" width="1" height="2" style="fill:#e5cc61"/><rect x="24" y="9" width="1" height="1" style="fill:#e5cc61"/><rect x="23" y="7" width="1" height="1" style="fill:#e5cc61"/><rect x="20" y="27" width="1" height="1" style="fill:#459391"/><rect x="17" y="28" width="2" height="1" style="fill:#459391"/><rect x="25" y="22" width="1" height="1" style="fill:#459391"/><polygon points="27 21 27 20 25 20 25 19 23 19 23 20 21 20 21 21 24 21 24 22 23 22 23 23 24 23 24 27 23 27 23 28 21 28 21 29 23 29 23 34 23 37 24 37 24 47 22 47 22 46 21 46 21 44 20 44 20 46 20 47 18 47 18 48 24 48 25 48 25 37 25 34 24 34 24 28 25 28 25 23 28 23 28 21 27 21" style="fill:#459391"/></svg>