<svg xmlns="http://www.w3.org/2000/svg" viewBox="0 0 40 60"><title>people</title><polygon points="24 7 24 6 16 6 16 7 15 7 15 10 14 10 14 13 15 13 15 15 16 15 16 16 17 16 17 17 18 17 18 19 19 19 19 20 21 20 21 19 22 19 22 17 23 17 23 16 24 16 24 15 25 15 25 7 24 7" style="fill:#e2c29f"/><polygon points="30 56 26 56 26 55 25 55 25 54 15 54 15 55 7 55 7 56 5 56 5 57 7 57 8 57 13 57 13 58 30 58 30 57 31 57 31 56 30 56" style="fill:#f2f2f2"/><rect x="23" y="18" width="1" height="1" style="fill:#484c59"/><polygon points="28 22 28 21 27 21 27 20 26 20 26 19 17 19 17 18 16 18 16 19 14 19 14 20 13 20 13 21 12 21 12 22 11 22 11 23 11 38 14 38 14 29 15 29 15 39 15 40 15 41 15 49 16 49 16 57 19 57 19 49 19 48 19 41 21 41 21 49 22 49 22 57 25 57 25 49 25 48 25 41 25 40 25 39 25 29 26 29 26 38 29 38 29 23 29 22 28 22" style="fill:#484c59"/><polygon points="21 19 21 20 19 20 19 19 18 19 18 22 19 22 19 24 20 24 20 26 21 26 21 24 21 22 22 22 22 19 21 19" style="fill:#ced6ea"/><rect x="21" y="19" width="1" height="1" style="fill:#a83841"/><rect x="18" y="19" width="1" height="1" style="fill:#a83841"/><polygon points="19 20 19 21 19 22 19 28 20 28 20 22 21 22 21 21 21 20 19 20" style="fill:#a83841"/><rect x="17" y="18" width="1" height="2" style="fill:#ced6ea"/><rect x="22" y="18" width="1" height="2" style="fill:#ced6ea"/><rect x="11" y="38" width="3" height="1" style="fill:#ced6ea"/><rect x="26" y="38" width="2" height="1" style="fill:#ced6ea"/><rect x="28" y="38" width="1" height="1" style="fill:#afbbd3"/><rect x="21" y="20" width="1" height="1" style="fill:#afbbd3"/><rect x="20" y="22" width="1" height="2" style="fill:#afbbd3"/><rect x="13" y="38" width="1" height="1" style="fill:#afbbd3"/><rect x="12" y="39" width="2" height="1" style="fill:#e2c29f"/><rect x="26" y="39" width="2" height="1" style="fill:#e2c29f"/><rect x="24" y="6" width="2" height="2" style="fill:#bc704a"/><rect x="24" y="8" width="1" height="2" style="fill:#bc704a"/><rect x="18" y="4" width="4" height="1" style="fill:#484c59"/><rect x="24" y="5" width="1" height="1" style="fill:#bc704a"/><rect x="25" y="10" width="1" height="3" style="fill:#e2c29f"/><rect x="21" y="10" width="1" height="1" style="fill:#5b350f"/><rect x="18" y="14" width="3" height="1" style="fill:#e0aa8c"/><rect x="17" y="10" width="1" height="1" style="fill:#5b350f"/><polygon points="23 5 17 5 15 5 15 6 14 6 14 8 15 8 15 10 16 10 16 8 16 7 17 7 17 6 23 6 23 7 24 7 24 5 23 5" style="fill:#bc704a"/><rect x="19" y="30" width="1" height="1" style="fill:#383c47"/><rect x="19" y="34" width="1" height="1" style="fill:#383c47"/><rect x="19" y="37" width="1" height="1" style="fill:#383c47"/><rect x="15" y="38" width="4" height="1" style="fill:#383c47"/><rect x="18" y="40" width="1" height="17" style="fill:#383c47"/><rect x="19" y="40" width="2" height="1" style="fill:#383c47"/><rect x="18" y="22" width="1" height="1" style="fill:#383c47"/><rect x="17" y="20" width="1" height="1" style="fill:#383c47"/><rect x="16" y="55" width="3" height="2" style="fill:#1a1c21"/><polygon points="19 17 19 18 21 18 21 19 22 19 22 18 22 17 19 17" style="fill:#ddb690"/><polygon points="25 10 24 10 24 7 23 7 23 11 24 11 24 14 23 14 23 15 22 15 22 17 23 17 23 16 24 16 24 15 25 15 25 13 26 13 26 10 25 10" style="fill:#ddb690"/><rect x="27" y="39" width="1" height="1" style="fill:#ddb690"/><rect x="13" y="39" width="1" height="1" style="fill:#ddb690"/><rect x="20" y="9" width="3" height="1" style="fill:#b58e71"/><rect x="16" y="9" width="2" height="1" style="fill:#b58e71"/><polygon points="25 6 25 5 24 5 24 6 23 6 23 7 24 7 24 10 25 10 25 8 26 8 26 6 25 6" style="fill:#aa6141"/><rect x="23" y="24" width="1" height="1" style="fill:#63383b"/><polygon points="28 22 28 21 27 21 27 20 26 20 26 19 24 19 24 18 23 18 23 20 22 20 22 22 23 22 23 21 24 21 24 20 25 20 25 21 26 21 26 22 26 24 25 24 25 27 24 27 24 35 23 35 23 38 20 38 20 39 22 39 22 40 24 40 24 57 25 57 25 29 26 29 26 32 26 38 27 38 27 34 28 34 28 38 29 38 29 34 29 24 29 22 28 22" style="fill:#383c47"/><polygon points="21 25 21 26 24 26 24 25 22 25 22 22 21 22 21 25" style="fill:#383c47"/><polygon points="15 28 15 26 14 26 14 24 13 24 13 38 14 38 14 29 15 29 15 32 16 32 16 28 15 28" style="fill:#383c47"/><rect x="19" y="9" width="1" height="4" style="fill:#ddb690"/><rect x="22" y="55" width="3" height="2" style="fill:#1a1c21"/></svg>