<svg xmlns="http://www.w3.org/2000/svg" viewBox="0 0 40 60"><title>people</title><polygon points="31 56 27 56 27 55 26 55 26 54 16 54 16 55 8 55 8 56 6 56 6 57 4 57 4 58 14 58 15 58 15 59 30 59 30 58 31 58 31 57 32 57 32 56 31 56" style="fill:#f2f2f2"/><polygon points="15 36 15 40 15 49 16 49 16 57 19 57 19 40 21 40 21 49 22 49 22 57 25 57 25 40 25 36 15 36" style="fill:#423f3d"/><rect x="14" y="21" width="12" height="3" style="fill:#34493c"/><polygon points="28 20 28 19 13 19 13 20 12 20 12 21 11 21 11 36 13 36 13 24 14 24 14 27 14 30 14 35 15 35 15 37 25 37 25 35 25 34 25 30 26 30 26 27 26 24 27 24 27 36 29 36 29 24 29 21 29 20 28 20" style="fill:#34493c"/><polygon points="24 7 24 6 16 6 16 7 15 7 15 16 16 16 16 17 24 17 24 16 25 16 25 7 24 7" style="fill:#c4af9d"/><rect x="21" y="10" width="1" height="1" style="fill:#34493c"/><rect x="18" y="14" width="3" height="1" style="fill:#af8a82"/><rect x="17" y="10" width="1" height="1" style="fill:#34493c"/><rect x="25" y="20" width="2" height="2" style="fill:#34493c"/><rect x="19" y="10" width="1" height="3" style="fill:#af9e90"/><rect x="11" y="36" width="2" height="2" style="fill:#c4af9d"/><rect x="27" y="36" width="2" height="2" style="fill:#c4af9d"/><rect x="28" y="36" width="1" height="2" style="fill:#b7a495"/><rect x="12" y="36" width="1" height="2" style="fill:#b7a495"/><rect x="20" y="16" width="2" height="1" style="fill:#b7a495"/><rect x="20" y="6" width="1" height="1" style="fill:#b7a495"/><polygon points="22 7 21 7 21 8 22 8 22 16 23 16 23 7 22 7" style="fill:#b7a495"/><rect x="16" y="32" width="1" height="1" style="fill:#2e3f34"/><rect x="16" y="29" width="1" height="1" style="fill:#2e3f34"/><rect x="15" y="27" width="1" height="1" style="fill:#2e3f34"/><rect x="18" y="27" width="1" height="1" style="fill:#2e3f34"/><rect x="17" y="25" width="1" height="1" style="fill:#2e3f34"/><rect x="11" y="21" width="1" height="1" style="fill:#2e3f34"/><rect x="16" y="22" width="1" height="1" style="fill:#2e3f34"/><rect x="14" y="20" width="1" height="1" style="fill:#2e3f34"/><rect x="20" y="29" width="1" height="1" style="fill:#2e3f34"/><rect x="21" y="31" width="1" height="1" style="fill:#2e3f34"/><rect x="21" y="27" width="1" height="1" style="fill:#2e3f34"/><rect x="22" y="25" width="1" height="1" style="fill:#2e3f34"/><polygon points="21 22 21 23 19 23 19 24 20 24 20 25 21 25 21 24 22 24 22 23 23 23 23 22 21 22" style="fill:#2e3f34"/><rect x="14.5" y="33.5" width="1" height="1" style="fill:#2e3f34"/><rect x="18" y="31" width="1" height="1" style="fill:#2e3f34"/><rect x="14" y="31" width="1" height="1" style="fill:#2e3f34"/><rect x="15" y="26" width="1" height="1" style="fill:#2e3f34"/><rect x="20" y="34" width="1" height="1" style="fill:#2e3f34"/><rect x="22" y="33" width="1" height="1" style="fill:#2e3f34"/><rect x="18" y="33" width="1" height="1" style="fill:#2e3f34"/><polygon points="14 23 14 22 13 22 13 23 12 23 12 24 11 24 11 25 12 25 12 29 11 29 11 30 12 30 12 33 11 33 11 34 12 34 12 36 13 36 13 24 14 24 14 26 15 26 15 23 14 23" style="fill:#2e3f34"/><polygon points="28 20 28 19 27 19 27 21 26 21 26 22 25 22 25 23 24 23 24 28 23 28 22 28 22 29 23 29 23 30 24 30 24 35 23 35 23 36 19 36 19 37 24 37 25 37 25 30 26 30 26 24 28 24 28 25 27 25 27 26 28 26 28 29 27 29 27 30 28 30 28 33 27 33 27 34 28 34 28 36 29 36 29 20 28 20" style="fill:#2e3f34"/><rect x="16" y="35" width="1" height="1" style="fill:#2e3f34"/><rect x="24" y="37" width="1" height="20" style="fill:#333130"/><polygon points="21 39 19 39 18 39 18 40 18 57 19 57 19 40 21 40 21 39" style="fill:#333130"/><rect x="22" y="56" width="3" height="1" style="fill:#0f0f0f"/><rect x="16" y="56" width="3" height="1" style="fill:#0f0f0f"/><polygon points="24 19 24 18 25 18 25 17 26 17 26 10 25 10 25 7 25 6 24 6 24 5 23 5 23 4 17 4 17 5 16 5 16 6 15 6 15 7 15 16 16 16 16 7 18 7 18 6 21 6 21 7 23 7 23 16 22 16 22 17 18 17 18 16 16 16 16 17 16 18 15 18 15 19 16 19 16 21 17 21 17 22 18 22 18 23 21 23 21 22 26 22 26 21 27 21 27 19 24 19" style="fill:#cc8f4e"/><rect x="17" y="20" width="2" height="1" style="fill:#c1844c"/><rect x="24" y="20" width="2" height="1" style="fill:#c1844c"/><polygon points="19 18 19 19 21 19 21 20 22 20 22 19 23 19 23 20 24 20 24 19 24 18 19 18" style="fill:#c1844c"/><rect x="20" y="21" width="2" height="1" style="fill:#c1844c"/><polygon points="25 10 25 6 24 6 24 11 25 11 25 13 24 13 24 14 25 14 25 15 24 15 24 18 25 18 25 17 26 17 26 10 25 10" style="fill:#c1844c"/></svg>