<svg xmlns="http://www.w3.org/2000/svg" viewBox="0 0 24 32"><title>people</title><polygon points="16 30 15 30 12 30 12 29 6 29 6 30 5 30 2 30 2 31 5 31 5 32 15 32 15 31 16 31 16 30" style="fill:#f2f2f2"/><polygon points="13 21 11 21 10 21 10 31 11 31 11 22 13 22 13 31 14 31 14 21 13 21" style="fill:#419bd8"/><polygon points="16 13 16 22 15 22 15 24 17 24 17 23 17 22 17 13 16 13" style="fill:#e8d4b3"/><polygon points="8 22 8 13 7 13 7 22 7 23 7 24 9 24 9 22 8 22" style="fill:#e8d4b3"/><polygon points="15 13 15 12 9 12 9 13 7 13 7 18 9 18 9 21 15 21 15 18 17 18 17 13 15 13" style="fill:gray"/><polygon points="14 7 14 5 13 5 9 5 9 6 9 10 10 10 10 11 11 11 11 12 11 13 13 13 13 12 13 11 13 10 14 10 14 9 15 9 15 7 14 7" style="fill:#e8d4b3"/><rect x="12" y="7" width="1" height="1" style="fill:#3a312c"/><rect x="10" y="7" width="1" height="1" style="fill:#3a312c"/><rect x="11" y="9" width="1" height="1" style="fill:#efc19c"/><rect x="10" y="4" width="3" height="1" style="fill:#e8d4b3"/><polygon points="13 4 13 3 9 3 9 4 10 4 10 5 13 5 13 6 14 6 14 4 13 4" style="fill:#a67c52"/><rect x="9" y="5" width="1" height="1" style="fill:#a67c52"/><rect x="14" y="6" width="1" height="1" style="fill:#a67c52"/><rect x="13" y="30" width="2" height="1" style="fill:#f15a24"/><rect x="9" y="30" width="2" height="1" style="fill:#f15a24"/></svg>