<svg xmlns="http://www.w3.org/2000/svg" viewBox="0 0 40 60"><title>people</title><polygon points="17 7 17 8 16 8 16 16 17 16 17 17 19 17 19 19 17 19 17 20 19 20 19 21 21 21 21 20 24 20 24 19 22 19 22 17 24 17 24 16 24 8 24 7 17 7" style="fill:#f4e5dc"/><polygon points="27 56 27 55 21 55 21 54 20 54 20 53 12 53 12 54 10 54 10 55 4 55 4 56 3 56 3 57 10 57 10 58 11 58 11 59 27 59 27 57 28 57 28 56 27 56" style="fill:#f2f2f2"/><rect x="21" y="10" width="1" height="1" style="fill:#136b24"/><rect x="17" y="10" width="1" height="1" style="fill:#136b24"/><rect x="19" y="14" width="2" height="1" style="fill:#c1272d"/><rect x="24" y="8" width="1" height="8" style="fill:#f4e5dc"/><rect x="25" y="12" width="1" height="2" style="fill:#f4e5dc"/><polygon points="23 4 23 3 22 3 22 2 21 2 20 2 20 3 19 3 19 5 18 5 18 9 19 9 19 8 20 8 20 7 21 7 22 7 23 7 24 7 24 4 23 4" style="fill:#ea3fc6"/><polygon points="15 38 15 40 15 41 15 48 16 48 16 57 18 57 18 48 18 41 18 40 22 40 22 41 22 49 23 49 23 57 25 57 25 49 25 48 25 41 25 40 25 38 15 38" style="fill:#87888e"/><rect x="13" y="23" width="1" height="6" style="fill:#f4e5dc"/><polygon points="13 36 13 23 12 23 12 36 12 38 14 38 14 36 13 36" style="fill:#f4e5dc"/><polygon points="27 23 26 23 26 29 27 29 27 36 26 36 26 38 28 38 28 36 28 23 27 23" style="fill:#f4e5dc"/><polygon points="27 21 27 20 17 20 17 19 16 19 16 20 14 20 14 21 12 21 12 23 15 23 15 28 16 28 16 36 15 36 15 38 16 38 24 38 25 38 25 34 24 34 24 28 25 28 25 23 28 23 28 21 27 21" style="fill:#423e3c"/><rect x="19" y="26" width="1" height="2" style="fill:#2b2827"/><rect x="18" y="28" width="1" height="1" style="fill:#2b2827"/><rect x="27" y="23" width="1" height="14" style="fill:#e8d6cd"/><rect x="13" y="23" width="1" height="6" style="fill:#e8d6cd"/><rect x="13" y="36" width="1" height="1" style="fill:#e8d6cd"/><rect x="20" y="10" width="1" height="3" style="fill:#e8d6cd"/><polygon points="22 19 22 18 22 17 21 17 20 17 20 18 21 18 21 20 22 20 23 20 23 19 22 19" style="fill:#e8d6cd"/><polygon points="25 12 25 8 24 8 24 7 23 7 23 9 24 9 24 15 23 15 23 16 22 16 22 17 23 17 24 17 24 16 25 16 25 14 26 14 26 12 25 12" style="fill:#e8d6cd"/><polygon points="15 22 14 22 14 23 15 23 15 25 16 25 16 22 15 22" style="fill:#2b2827"/><rect x="24" y="38" width="1" height="19" style="fill:#707175"/><rect x="17" y="39" width="1" height="18" style="fill:#707175"/><polygon points="27 21 27 20 26 20 25 20 25 19 23 19 23 22 24 22 24 27 23 27 23 28 20 28 20 29 22 29 22 30 23 30 23 34 23 36 22 36 22 37 21 37 21 38 23 38 24 38 25 38 25 34 24 34 24 28 25 28 25 23 26 23 27 23 28 23 28 21 27 21" style="fill:#2b2827"/><rect x="25" y="13" width="1" height="1" style="fill:#423e3c"/><rect x="16" y="54" width="2" height="3" style="fill:#423e3c"/><rect x="23" y="54" width="2" height="3" style="fill:#423e3c"/></svg>