<svg xmlns="http://www.w3.org/2000/svg" viewBox="0 0 40 60"><title>people</title><polygon points="29 56 27 56 21 56 21 54 9 54 9 56 7 56 1 56 1 58 7 58 7 60 27 60 27 58 29 58 29 56" style="fill:#f2f2f2"/><polygon points="15 37 15 38 15 48 16 48 16 58 18 58 18 48 18 41 22 41 22 48 23 48 23 58 25 58 25 48 25 40 26 40 26 38 26 37 15 37" style="fill:#0071bc"/><rect x="17" y="4" width="6" height="1" style="fill:#c7b299"/><polygon points="24 7 24 5 16 5 16 7 15 7 15 17 16 17 16 18 18 18 18 20 22 20 22 18 23 18 23 17 24 17 24 14 25 14 25 7 24 7" style="fill:#c7b299"/><rect x="21" y="10" width="1" height="1" style="fill:#534741"/><polygon points="22 9 21 9 20 9 20 10 21 10 22 10 23 10 23 9 22 9" style="fill:#998675"/><rect x="16" y="10" width="1" height="1" style="fill:#534741"/><polygon points="17 9 15 9 15 10 17 10 18 10 18 9 17 9" style="fill:#998675"/><rect x="17.5" y="15" width="3" height="1" style="fill:#c99781"/><rect x="24" y="12" width="2" height="3" style="fill:#c7b299"/><polygon points="28 22 28 21 26 21 26 20 15 20 15 21 13 21 13 22 11 22 11 28 14 28 14 25 15 25 15 38 26 38 26 25 27 25 27 28 30 28 30 22 28 22" style="fill:#6f7382"/><rect x="11" y="28" width="2" height="12" style="fill:#c7b299"/><rect x="13" y="38" width="1" height="2" style="fill:#c7b299"/><polygon points="28 28 28 38 27 38 27 40 28 40 30 40 30 28 28 28" style="fill:#c7b299"/><polygon points="24 5 24 4 23 4 23 3 15 3 15 4 16 4 16 5 16 6 23 6 23 8 24 8 24 13 25 13 25 6 25 5 24 5" style="fill:#534741"/><rect x="18" y="16" width="1" height="1" style="fill:#534741"/><rect x="29" y="28" width="1" height="12" style="fill:#b7a38d"/><polygon points="13 38 13 28 12 28 12 40 13 40 14 40 14 38 13 38" style="fill:#b7a38d"/><polygon points="25 12 25 13 24 13 24 8 23 8 23 6 22 6 22 9 23 9 23 16 22 16 22 17 21 17 21 18 19 18 19 19 21 19 21 20 22 20 22 18 23 18 23 17 24 17 24 15 25 15 26 15 26 12 25 12" style="fill:#b7a38d"/><polygon points="20 10 20 9 19 9 19 14 20 14 20 12 21 12 21 10 20 10" style="fill:#b7a38d"/><polygon points="29 22 28 22 28 21 26 21 26 20 22 20 22 21 25 21 25 22 27 22 27 23 29 23 29 28 30 28 30 22 29 22" style="fill:#636670"/><polygon points="25 24 25 26 24 26 24 32 23 32 23 35 22 35 22 36 24 36 24 37 25 37 25 38 26 38 26 24 25 24" style="fill:#636670"/><polygon points="14 24 13 24 13 28 14 28 14 25 15 25 15 31 16 31 16 25 16 24 14 24" style="fill:#636670"/><rect x="15" y="6" width="1" height="1" style="fill:#534741"/><rect x="28" y="37" width="2" height="1" style="fill:#666"/><rect x="29" y="37" width="1" height="1" style="fill:#4c4c4c"/></svg>