<svg xmlns="http://www.w3.org/2000/svg" viewBox="0 0 40 60"><title>people</title><polygon points="26 21 26 19 15 19 15 20 13 20 13 21 12 21 12 22 11 22 11 27 14 27 14 24 15 24 15 39 26 39 26 24 29 24 29 21 26 21" style="fill:#9b404d"/><polygon points="24 8 24 7 17 7 17 8 16 8 16 16 26 16 26 8 24 8" style="fill:#59443e"/><polygon points="23 17 19 17 19 19 18 19 18 20 24 20 24 19 23 19 23 17" style="fill:#59443e"/><polygon points="28 56 23 56 23 54 21 54 21 53 15 53 15 54 13 54 13 55 8 55 8 54 4 54 4 56 5 56 5 57 7 57 7 58 11 58 11 59 28 59 28 57 31 57 31 56 28 56" style="fill:#f2f2f2"/><rect x="17" y="16" width="8" height="1" style="fill:#59443e"/><rect x="17" y="6" width="8" height="1" style="fill:#59443e"/><rect x="26" y="12" width="1" height="3" style="fill:#59443e"/><rect x="25" y="20" width="3" height="1" style="fill:#9b404d"/><rect x="27" y="22" width="3" height="5" style="fill:#9b404d"/><rect x="26" y="24" width="1" height="6" style="fill:#9b404d"/><rect x="14" y="24" width="1" height="5" style="fill:#9b404d"/><polygon points="27 27 27 32 28 32 28 38 27 38 27 40 30 40 30 39 30 38 30 32 30 27 27 27" style="fill:#59443e"/><polygon points="14 32 14 27 11 27 11 32 11 39 11 39 11 40 14 40 14 38 13 38 13 32 14 32" style="fill:#59443e"/><polygon points="15 39 15 43 15 48 16 48 16 57 19 57 19 48 19 43 22 43 22 48 23 48 23 57 26 57 26 48 26 43 26 39 15 39" style="fill:#d3b08d"/><rect x="23" y="55" width="3" height="2" style="fill:#4f5666"/><rect x="16" y="55" width="3" height="2" style="fill:#4f5666"/><rect x="22" y="10" width="1" height="1" style="fill:#262728"/><rect x="17" y="10" width="1" height="1" style="fill:#262728"/><rect x="19" y="14" width="2" height="1" style="fill:#7a554c"/><polygon points="29 8 29 7 28 7 28 6 26 6 26 9 28 9 28 11 29 11 29 9 30 9 30 8 29 8" style="fill:#282322"/><rect x="25" y="39" width="1" height="16" style="fill:#bf9e80"/><polygon points="22 41 18 41 18 42 18 43 18 55 19 55 19 43 22 43 22 41" style="fill:#bf9e80"/><rect x="28" y="21" width="1" height="3" style="fill:#823342"/><rect x="27" y="20" width="1" height="2" style="fill:#823342"/><rect x="25" y="19" width="1" height="2" style="fill:#823342"/><rect x="26" y="20" width="1" height="1" style="fill:#823342"/><rect x="15" y="30" width="1" height="1" style="fill:#aa5569"/><rect x="15" y="28" width="1" height="1" style="fill:#aa5569"/><rect x="15" y="32" width="1" height="1" style="fill:#aa5569"/><rect x="15" y="34" width="1" height="1" style="fill:#aa5569"/><rect x="15" y="36" width="1" height="1" style="fill:#aa5569"/><rect x="15" y="38" width="1" height="1" style="fill:#aa5569"/><rect x="14" y="21" width="15" height="1" style="fill:#aa5569"/><rect x="11" y="22" width="3" height="1" style="fill:#aa5569"/><rect x="15" y="19" width="3" height="1" style="fill:#aa5569"/><rect x="24" y="19" width="2" height="1" style="fill:#aa5569"/><rect x="14" y="23" width="13" height="1" style="fill:#aa5569"/><rect x="11" y="24" width="3" height="1" style="fill:#aa5569"/><rect x="28" y="22" width="2" height="5" style="fill:#823342"/><rect x="25" y="26" width="5" height="1" style="fill:#823342"/><rect x="26" y="24" width="1" height="6" style="fill:#823342"/><rect x="25" y="28" width="1" height="11" style="fill:#823342"/><rect x="16" y="31" width="10" height="1" style="fill:#aa5569"/><rect x="16" y="33" width="10" height="1" style="fill:#aa5569"/><rect x="16" y="35" width="10" height="1" style="fill:#aa5569"/><rect x="16" y="37" width="10" height="1" style="fill:#aa5569"/><rect x="27" y="23" width="3" height="1" style="fill:#aa5569"/><rect x="15" y="25" width="15" height="1" style="fill:#aa5569"/><rect x="14" y="24" width="1" height="5" style="fill:#823342"/><rect x="15" y="26" width="1" height="4" style="fill:#823342"/><rect x="16" y="27" width="10" height="1" style="fill:#aa5569"/><rect x="11" y="26" width="4" height="1" style="fill:#aa5569"/><rect x="16" y="29" width="10" height="1" style="fill:#aa5569"/><rect x="23" y="38" width="3" height="1" style="fill:#823342"/><rect x="24" y="29" width="3" height="1" style="fill:#8e3f52"/><rect x="25" y="31" width="1" height="1" style="fill:#8e3f52"/><rect x="25" y="33" width="1" height="1" style="fill:#8e3f52"/><rect x="25" y="35" width="1" height="1" style="fill:#8e3f52"/><rect x="24" y="37" width="2" height="1" style="fill:#8e3f52"/><rect x="25" y="27" width="2" height="1" style="fill:#8e3f52"/><rect x="27" y="25" width="3" height="1" style="fill:#8e3f52"/><rect x="25" y="25" width="2" height="1" style="fill:#8e3f52"/><rect x="28" y="23" width="2" height="1" style="fill:#8e3f52"/><rect x="27" y="21" width="2" height="1" style="fill:#8e3f52"/><rect x="25" y="19" width="1" height="1" style="fill:#8e3f52"/><rect x="15" y="25" width="1" height="1" style="fill:#8e3f52"/><rect x="14" y="26" width="1" height="1" style="fill:#8e3f52"/><rect x="15" y="27" width="1" height="1" style="fill:#8e3f52"/><rect x="15" y="30" width="1" height="1" style="fill:#8e3f52"/><rect x="24" y="30" width="1" height="1" style="fill:#823342"/><rect x="20" y="10" width="1" height="3" style="fill:#42312d"/><rect x="24" y="8" width="1" height="4" style="fill:#42312d"/><polygon points="26 6 26 5 25 5 25 4 19 4 19 5 18 5 18 6 17 6 17 7 18 7 19 7 24 7 24 8 25 8 25 10 25 12 24 12 24 15 23 15 23 16 18 16 18 15 16 15 16 16 17 16 17 17 19 17 19 18 21 18 21 17 23 17 24 17 25 17 25 16 26 16 26 14 25 14 25 13 26 13 26 10 27 10 27 6 26 6" style="fill:#282322"/><polygon points="26 12 26 13 25 13 25 14 26 14 26 15 27 15 27 12 26 12" style="fill:#42312d"/><polygon points="23 19 23 17 22 17 22 20 23 20 24 20 24 19 23 19" style="fill:#42312d"/><rect x="29" y="27" width="1" height="13" style="fill:#42312d"/><polygon points="14 32 14 27 13 27 13 31 12 31 12 39 13 39 13 40 14 40 14 38 13 38 13 32 14 32" style="fill:#42312d"/><rect x="27" y="38" width="1" height="1" style="fill:#42312d"/><rect x="26" y="6" width="1" height="3" style="fill:#e54a30"/></svg>